<svg xmlns="http://www.w3.org/2000/svg" version="1.1" width="600" height="400">
<defs><clipPath id="plot-area"><rect x="52.50" y="25.00" width="512.00" height="350.00"/>
</clipPath></defs><line clip-path="url(#plot-area)"  x1="54.62" y1="25.00" x2="54.62" y2="375.00"  style="stroke: #ccc;stroke-width:0.50"/>
<line clip-path="url(#plot-area)"  x1="139.24" y1="25.00" x2="139.24" y2="375.00"  style="stroke: #ccc;stroke-width:0.50"/>
<line clip-path="url(#plot-area)"  x1="223.87" y1="25.00" x2="223.87" y2="375.00"  style="stroke: #ccc;stroke-width:0.50"/>
<line clip-path="url(#plot-area)"  x1="308.50" y1="25.00" x2="308.50" y2="375.00"  style="stroke: #ccc;stroke-width:0.50"/>
<line clip-path="url(#plot-area)"  x1="393.13" y1="25.00" x2="393.13" y2="375.00"  style="stroke: #ccc;stroke-width:0.50"/>
<line clip-path="url(#plot-area)"  x1="477.76" y1="25.00" x2="477.76" y2="375.00"  style="stroke: #ccc;stroke-width:0.50"/>
<line clip-path="url(#plot-area)"  x1="562.38" y1="25.00" x2="562.38" y2="375.00"  style="stroke: #ccc;stroke-width:0.50"/>
<line clip-path="url(#plot-area)"  x1="52.50" y1="318.79" x2="564.50" y2="318.79"  style="stroke: #ccc;stroke-width:0.50"/>
<line clip-path="url(#plot-area)"  x1="52.50" y1="255.57" x2="564.50" y2="255.57"  style="stroke: #ccc;stroke-width:0.50"/>
<line clip-path="url(#plot-area)"  x1="52.50" y1="192.35" x2="564.50" y2="192.35"  style="stroke: #ccc;stroke-width:0.50"/>
<line clip-path="url(#plot-area)"  x1="52.50" y1="129.13" x2="564.50" y2="129.13"  style="stroke: #ccc;stroke-width:0.50"/>
<line clip-path="url(#plot-area)"  x1="52.50" y1="65.91" x2="564.50" y2="65.91"  style="stroke: #ccc;stroke-width:0.50"/>
<polyline clip-path="url(#plot-area)" style="fill:none; stroke:#db5f57; stroke-width:2.00;"  points="75.77,40.91 100.27,108.77 124.77,151.21 149.27,176.14 173.76,189.65 198.26,196.21 222.76,198.92 247.26,199.80 271.75,199.98 296.25,200.00 320.75,200.00 345.25,200.02 369.74,200.20 394.24,201.08 418.74,203.79 443.24,210.35 467.73,223.86 492.23,248.79 516.73,291.23 541.23,359.09 " /><circle clip-path="url(#plot-area)"  cx="75.77" cy="40.91" r="3.00" fill="#db5f57" /><circle clip-path="url(#plot-area)"  cx="100.27" cy="108.77" r="3.00" fill="#db5f57" /><circle clip-path="url(#plot-area)"  cx="124.77" cy="151.21" r="3.00" fill="#db5f57" /><circle clip-path="url(#plot-area)"  cx="149.27" cy="176.14" r="3.00" fill="#db5f57" /><circle clip-path="url(#plot-area)"  cx="173.76" cy="189.65" r="3.00" fill="#db5f57" /><circle clip-path="url(#plot-area)"  cx="198.26" cy="196.21" r="3.00" fill="#db5f57" /><circle clip-path="url(#plot-area)"  cx="222.76" cy="198.92" r="3.00" fill="#db5f57" /><circle clip-path="url(#plot-area)"  cx="247.26" cy="199.80" r="3.00" fill="#db5f57" /><circle clip-path="url(#plot-area)"  cx="271.75" cy="199.98" r="3.00" fill="#db5f57" /><circle clip-path="url(#plot-area)"  cx="296.25" cy="200.00" r="3.00" fill="#db5f57" /><circle clip-path="url(#plot-area)"  cx="320.75" cy="200.00" r="3.00" fill="#db5f57" /><circle clip-path="url(#plot-area)"  cx="345.25" cy="200.02" r="3.00" fill="#db5f57" /><circle clip-path="url(#plot-area)"  cx="369.74" cy="200.20" r="3.00" fill="#db5f57" /><circle clip-path="url(#plot-area)"  cx="394.24" cy="201.08" r="3.00" fill="#db5f57" /><circle clip-path="url(#plot-area)"  cx="418.74" cy="203.79" r="3.00" fill="#db5f57" /><circle clip-path="url(#plot-area)"  cx="443.24" cy="210.35" r="3.00" fill="#db5f57" /><circle clip-path="url(#plot-area)"  cx="467.73" cy="223.86" r="3.00" fill="#db5f57" /><circle clip-path="url(#plot-area)"  cx="492.23" cy="248.79" r="3.00" fill="#db5f57" /><circle clip-path="url(#plot-area)"  cx="516.73" cy="291.23" r="3.00" fill="#db5f57" /><circle clip-path="url(#plot-area)"  cx="541.23" cy="359.09" r="3.00" fill="#db5f57" /><polyline clip-path="url(#plot-area)" style="fill:none; stroke:#dbae57; stroke-width:2.00;"  points="106.33,128.26 158.05,181.35 209.77,191.64 261.48,207.95 313.20,190.88 364.92,198.85 416.64,203.14 468.35,229.31 520.07,295.70 " /><rect clip-path="url(#plot-area)"  x="103.33" y="125.26" width="6.00" height="6.00" style="fill:#dbae57; fill-opacity:1.00; stroke:none; stroke-width:0.00;" />
<rect clip-path="url(#plot-area)"  x="155.05" y="178.35" width="6.00" height="6.00" style="fill:#dbae57; fill-opacity:1.00; stroke:none; stroke-width:0.00;" />
<rect clip-path="url(#plot-area)"  x="206.77" y="188.64" width="6.00" height="6.00" style="fill:#dbae57; fill-opacity:1.00; stroke:none; stroke-width:0.00;" />
<rect clip-path="url(#plot-area)"  x="258.48" y="204.95" width="6.00" height="6.00" style="fill:#dbae57; fill-opacity:1.00; stroke:none; stroke-width:0.00;" />
<rect clip-path="url(#plot-area)"  x="310.20" y="187.88" width="6.00" height="6.00" style="fill:#dbae57; fill-opacity:1.00; stroke:none; stroke-width:0.00;" />
<rect clip-path="url(#plot-area)"  x="361.92" y="195.85" width="6.00" height="6.00" style="fill:#dbae57; fill-opacity:1.00; stroke:none; stroke-width:0.00;" />
<rect clip-path="url(#plot-area)"  x="413.64" y="200.14" width="6.00" height="6.00" style="fill:#dbae57; fill-opacity:1.00; stroke:none; stroke-width:0.00;" />
<rect clip-path="url(#plot-area)"  x="465.35" y="226.31" width="6.00" height="6.00" style="fill:#dbae57; fill-opacity:1.00; stroke:none; stroke-width:0.00;" />
<rect clip-path="url(#plot-area)"  x="517.07" y="292.70" width="6.00" height="6.00" style="fill:#dbae57; fill-opacity:1.00; stroke:none; stroke-width:0.00;" />
<rect  x="52.00" y="25.00" width="512.00" height="350.00" style="fill:none; fill-opacity:1.00; stroke:black; stroke-width:0.50;" />
<line  x1="54.62" y1="376.00" x2="54.62" y2="381.00"  style="stroke: black;stroke-width:1.00"/>
<text  x="54.62" y="395.00" text-anchor="middle"  font-weight="regular">-6.0</text>
<line  x1="139.24" y1="376.00" x2="139.24" y2="381.00"  style="stroke: black;stroke-width:1.00"/>
<text  x="139.24" y="395.00" text-anchor="middle"  font-weight="regular">-4.0</text>
<line  x1="223.87" y1="376.00" x2="223.87" y2="381.00"  style="stroke: black;stroke-width:1.00"/>
<text  x="223.87" y="395.00" text-anchor="middle"  font-weight="regular">-2.0</text>
<line  x1="308.50" y1="376.00" x2="308.50" y2="381.00"  style="stroke: black;stroke-width:1.00"/>
<text  x="308.50" y="395.00" text-anchor="middle"  font-weight="regular">0</text>
<line  x1="393.13" y1="376.00" x2="393.13" y2="381.00"  style="stroke: black;stroke-width:1.00"/>
<text  x="393.13" y="395.00" text-anchor="middle"  font-weight="regular">2.0</text>
<line  x1="477.76" y1="376.00" x2="477.76" y2="381.00"  style="stroke: black;stroke-width:1.00"/>
<text  x="477.76" y="395.00" text-anchor="middle"  font-weight="regular">4.0</text>
<line  x1="562.38" y1="376.00" x2="562.38" y2="381.00"  style="stroke: black;stroke-width:1.00"/>
<text  x="562.38" y="395.00" text-anchor="middle"  font-weight="regular">6.0</text>
<line  x1="46.50" y1="318.79" x2="51.50" y2="318.79"  style="stroke: black;stroke-width:1.00"/>
<text  x="42.50" y="322.79" text-anchor="end"  font-weight="regular"><tspan>-4.0e<tspan  font-size="10" dy="-5" dx="1">3</tspan></tspan></text>
<line  x1="46.50" y1="255.57" x2="51.50" y2="255.57"  style="stroke: black;stroke-width:1.00"/>
<text  x="42.50" y="259.57" text-anchor="end"  font-weight="regular"><tspan>-2.0e<tspan  font-size="10" dy="-5" dx="1">3</tspan></tspan></text>
<line  x1="46.50" y1="192.35" x2="51.50" y2="192.35"  style="stroke: black;stroke-width:1.00"/>
<text  x="42.50" y="196.35" text-anchor="end"  font-weight="regular">0</text>
<line  x1="46.50" y1="129.13" x2="51.50" y2="129.13"  style="stroke: black;stroke-width:1.00"/>
<text  x="42.50" y="133.13" text-anchor="end"  font-weight="regular"><tspan>2.0e<tspan  font-size="10" dy="-5" dx="1">3</tspan></tspan></text>
<line  x1="46.50" y1="65.91" x2="51.50" y2="65.91"  style="stroke: black;stroke-width:1.00"/>
<text  x="42.50" y="69.91" text-anchor="end"  font-weight="regular"><tspan>4.0e<tspan  font-size="10" dy="-5" dx="1">3</tspan></tspan></text>
<rect  x="454.50" y="35.00" width="100.00" height="36.00" style="fill:white; fill-opacity:0.50; stroke:#333; stroke-width:0.50;" />
<defs><clipPath id="leg-area"><rect x="494.50" y="35.00" width="58.00" height="36.00"/>
</clipPath></defs><line  x1="464.50" y1="46.00" x2="494.50" y2="46.00"  style="stroke: #db5f57;stroke-width:2.00"/>
<text clip-path="url(#leg-area)"  x="524.50" y="50.00" text-anchor="middle"  font-weight="regular">model</text>
<circle clip-path="url(#plot-area)"  cx="479.50" cy="46.00" r="3.00" fill="#db5f57" /><line  x1="464.50" y1="61.00" x2="494.50" y2="61.00"  style="stroke: #dbae57;stroke-width:2.00"/>
<text clip-path="url(#leg-area)"  x="524.50" y="65.00" text-anchor="middle"  font-weight="regular">estimate</text>
<rect clip-path="url(#plot-area)"  x="476.50" y="58.00" width="6.00" height="6.00" style="fill:#dbae57; fill-opacity:1.00; stroke:none; stroke-width:0.00;" />
</svg>

