<svg xmlns="http://www.w3.org/2000/svg" version="1.1" width="600" height="400">
<defs><clipPath id="plot-area"><rect x="70.00" y="25.00" width="495.00" height="325.00"/>
</clipPath></defs><line clip-path="url(#plot-area)"  x1="167.50" y1="25.00" x2="167.50" y2="350.00"  style="stroke: #ccc;stroke-width:0.50"/>
<line clip-path="url(#plot-area)"  x1="317.50" y1="25.00" x2="317.50" y2="350.00"  style="stroke: #ccc;stroke-width:0.50"/>
<line clip-path="url(#plot-area)"  x1="467.50" y1="25.00" x2="467.50" y2="350.00"  style="stroke: #ccc;stroke-width:0.50"/>
<line clip-path="url(#plot-area)"  x1="70.00" y1="324.95" x2="565.00" y2="324.95"  style="stroke: #ccc;stroke-width:0.50"/>
<line clip-path="url(#plot-area)"  x1="70.00" y1="239.70" x2="565.00" y2="239.70"  style="stroke: #ccc;stroke-width:0.50"/>
<line clip-path="url(#plot-area)"  x1="70.00" y1="154.45" x2="565.00" y2="154.45"  style="stroke: #ccc;stroke-width:0.50"/>
<line clip-path="url(#plot-area)"  x1="70.00" y1="69.21" x2="565.00" y2="69.21"  style="stroke: #ccc;stroke-width:0.50"/>
<polyline clip-path="url(#plot-area)" style="fill:none; stroke:#22f; stroke-width:2.00;"  points="92.50,341.48 167.50,290.15 242.50,238.83 317.50,187.50 392.50,136.17 467.50,84.85 542.50,33.52 " /><line clip-path="url(#plot-area)"  x1="89.50" y1="338.48" x2="95.50" y2="344.48"  style="stroke: #22f;stroke-width:1.50"/>
<line clip-path="url(#plot-area)"  x1="95.50" y1="338.48" x2="89.50" y2="344.48"  style="stroke: #22f;stroke-width:1.50"/>
<line clip-path="url(#plot-area)"  x1="164.50" y1="287.15" x2="170.50" y2="293.15"  style="stroke: #22f;stroke-width:1.50"/>
<line clip-path="url(#plot-area)"  x1="170.50" y1="287.15" x2="164.50" y2="293.15"  style="stroke: #22f;stroke-width:1.50"/>
<line clip-path="url(#plot-area)"  x1="239.50" y1="235.83" x2="245.50" y2="241.83"  style="stroke: #22f;stroke-width:1.50"/>
<line clip-path="url(#plot-area)"  x1="245.50" y1="235.83" x2="239.50" y2="241.83"  style="stroke: #22f;stroke-width:1.50"/>
<line clip-path="url(#plot-area)"  x1="314.50" y1="184.50" x2="320.50" y2="190.50"  style="stroke: #22f;stroke-width:1.50"/>
<line clip-path="url(#plot-area)"  x1="320.50" y1="184.50" x2="314.50" y2="190.50"  style="stroke: #22f;stroke-width:1.50"/>
<line clip-path="url(#plot-area)"  x1="389.50" y1="133.17" x2="395.50" y2="139.17"  style="stroke: #22f;stroke-width:1.50"/>
<line clip-path="url(#plot-area)"  x1="395.50" y1="133.17" x2="389.50" y2="139.17"  style="stroke: #22f;stroke-width:1.50"/>
<line clip-path="url(#plot-area)"  x1="464.50" y1="81.85" x2="470.50" y2="87.85"  style="stroke: #22f;stroke-width:1.50"/>
<line clip-path="url(#plot-area)"  x1="470.50" y1="81.85" x2="464.50" y2="87.85"  style="stroke: #22f;stroke-width:1.50"/>
<line clip-path="url(#plot-area)"  x1="539.50" y1="30.52" x2="545.50" y2="36.52"  style="stroke: #22f;stroke-width:1.50"/>
<line clip-path="url(#plot-area)"  x1="545.50" y1="30.52" x2="539.50" y2="36.52"  style="stroke: #22f;stroke-width:1.50"/>
<rect  x="70.00" y="25.00" width="495.00" height="325.00" style="fill:none; fill-opacity:1.00; stroke:black; stroke-width:0.50;" />
<text  x="317.50" y="387.00" text-anchor="middle"  font-weight="regular">Index</text>
<text  transform="rotate(270,5.00,187.50) translate(0, 10)"  x="5.00" y="187.50" text-anchor="middle"  font-weight="regular">Value</text>
<line  x1="167.50" y1="351.00" x2="167.50" y2="356.00"  style="stroke: black;stroke-width:1.00"/>
<text  x="167.50" y="370.00" text-anchor="middle"  font-weight="regular">2.0</text>
<line  x1="317.50" y1="351.00" x2="317.50" y2="356.00"  style="stroke: black;stroke-width:1.00"/>
<text  x="317.50" y="370.00" text-anchor="middle"  font-weight="regular">4.0</text>
<line  x1="467.50" y1="351.00" x2="467.50" y2="356.00"  style="stroke: black;stroke-width:1.00"/>
<text  x="467.50" y="370.00" text-anchor="middle"  font-weight="regular">6.0</text>
<line  x1="64.00" y1="324.95" x2="69.00" y2="324.95"  style="stroke: black;stroke-width:1.00"/>
<text  x="60.00" y="328.95" text-anchor="end"  font-weight="regular"><tspan>10<tspan  font-size="10" dy="-5" dx="1">1</tspan></tspan></text>
<line  x1="64.00" y1="239.70" x2="69.00" y2="239.70"  style="stroke: black;stroke-width:1.00"/>
<text  x="60.00" y="243.70" text-anchor="end"  font-weight="regular"></text>
<line  x1="64.00" y1="154.45" x2="69.00" y2="154.45"  style="stroke: black;stroke-width:1.00"/>
<text  x="60.00" y="158.45" text-anchor="end"  font-weight="regular"><tspan>10<tspan  font-size="10" dy="-5" dx="1">2</tspan></tspan></text>
<line  x1="64.00" y1="69.21" x2="69.00" y2="69.21"  style="stroke: black;stroke-width:1.00"/>
<text  x="60.00" y="73.21" text-anchor="end"  font-weight="regular"></text>
</svg>

