<svg xmlns="http://www.w3.org/2000/svg" version="1.1" width="600" height="400">
<defs><clipPath id="plot-area"><rect x="70.00" y="25.00" width="495.00" height="325.00"/>
</clipPath></defs><line clip-path="url(#plot-area)"  x1="103.78" y1="25.00" x2="103.78" y2="350.00"  style="stroke: #ccc;stroke-width:0.50"/>
<line clip-path="url(#plot-area)"  x1="199.99" y1="25.00" x2="199.99" y2="350.00"  style="stroke: #ccc;stroke-width:0.50"/>
<line clip-path="url(#plot-area)"  x1="296.21" y1="25.00" x2="296.21" y2="350.00"  style="stroke: #ccc;stroke-width:0.50"/>
<line clip-path="url(#plot-area)"  x1="392.43" y1="25.00" x2="392.43" y2="350.00"  style="stroke: #ccc;stroke-width:0.50"/>
<line clip-path="url(#plot-area)"  x1="488.65" y1="25.00" x2="488.65" y2="350.00"  style="stroke: #ccc;stroke-width:0.50"/>
<line clip-path="url(#plot-area)"  x1="70.00" y1="311.37" x2="565.00" y2="311.37"  style="stroke: #ccc;stroke-width:0.50"/>
<line clip-path="url(#plot-area)"  x1="70.00" y1="239.38" x2="565.00" y2="239.38"  style="stroke: #ccc;stroke-width:0.50"/>
<line clip-path="url(#plot-area)"  x1="70.00" y1="167.39" x2="565.00" y2="167.39"  style="stroke: #ccc;stroke-width:0.50"/>
<line clip-path="url(#plot-area)"  x1="70.00" y1="95.40" x2="565.00" y2="95.40"  style="stroke: #ccc;stroke-width:0.50"/>
<polyline clip-path="url(#plot-area)" style="fill:none; stroke:#db5f57; stroke-width:2.00;"  points="74.81,29.20 125.95,66.17 170.19,104.79 210.64,144.17 248.73,184.03 285.24,224.24 320.61,264.75 355.14,305.49 389.02,346.40 " /><rect clip-path="url(#plot-area)"  x="71.81" y="26.20" width="6.00" height="6.00" style="fill:#db5f57; fill-opacity:1.00; stroke:none; stroke-width:0.00;" />
<rect clip-path="url(#plot-area)"  x="122.95" y="63.17" width="6.00" height="6.00" style="fill:#db5f57; fill-opacity:1.00; stroke:none; stroke-width:0.00;" />
<rect clip-path="url(#plot-area)"  x="167.19" y="101.79" width="6.00" height="6.00" style="fill:#db5f57; fill-opacity:1.00; stroke:none; stroke-width:0.00;" />
<rect clip-path="url(#plot-area)"  x="207.64" y="141.17" width="6.00" height="6.00" style="fill:#db5f57; fill-opacity:1.00; stroke:none; stroke-width:0.00;" />
<rect clip-path="url(#plot-area)"  x="245.73" y="181.03" width="6.00" height="6.00" style="fill:#db5f57; fill-opacity:1.00; stroke:none; stroke-width:0.00;" />
<rect clip-path="url(#plot-area)"  x="282.24" y="221.24" width="6.00" height="6.00" style="fill:#db5f57; fill-opacity:1.00; stroke:none; stroke-width:0.00;" />
<rect clip-path="url(#plot-area)"  x="317.61" y="261.75" width="6.00" height="6.00" style="fill:#db5f57; fill-opacity:1.00; stroke:none; stroke-width:0.00;" />
<rect clip-path="url(#plot-area)"  x="352.14" y="302.49" width="6.00" height="6.00" style="fill:#db5f57; fill-opacity:1.00; stroke:none; stroke-width:0.00;" />
<rect clip-path="url(#plot-area)"  x="386.02" y="343.40" width="6.00" height="6.00" style="fill:#db5f57; fill-opacity:1.00; stroke:none; stroke-width:0.00;" />
<polyline clip-path="url(#plot-area)" style="fill:none; stroke:#dbae57; stroke-width:2.00;"  points="88.87,28.60 151.05,60.60 204.36,94.72 252.46,130.04 297.16,166.20 339.46,203.05 379.98,240.47 419.13,278.37 457.19,316.68 " /><circle clip-path="url(#plot-area)"  cx="88.87" cy="28.60" r="3.00" fill="#dbae57" /><circle clip-path="url(#plot-area)"  cx="151.05" cy="60.60" r="3.00" fill="#dbae57" /><circle clip-path="url(#plot-area)"  cx="204.36" cy="94.72" r="3.00" fill="#dbae57" /><circle clip-path="url(#plot-area)"  cx="252.46" cy="130.04" r="3.00" fill="#dbae57" /><circle clip-path="url(#plot-area)"  cx="297.16" cy="166.20" r="3.00" fill="#dbae57" /><circle clip-path="url(#plot-area)"  cx="339.46" cy="203.05" r="3.00" fill="#dbae57" /><circle clip-path="url(#plot-area)"  cx="379.98" cy="240.47" r="3.00" fill="#dbae57" /><circle clip-path="url(#plot-area)"  cx="419.13" cy="278.37" r="3.00" fill="#dbae57" /><circle clip-path="url(#plot-area)"  cx="457.19" cy="316.68" r="3.00" fill="#dbae57" /><polyline clip-path="url(#plot-area)" style="fill:none; stroke:#b9db57; stroke-width:2.00;"  points="99.37,30.86 170.19,58.62 230.80,88.88 285.24,120.69 335.51,153.67 382.78,187.62 427.77,222.37 470.99,257.82 512.79,293.85 " /><line clip-path="url(#plot-area)"  x1="96.37" y1="27.86" x2="102.37" y2="33.86"  style="stroke: #b9db57;stroke-width:1.50"/>
<line clip-path="url(#plot-area)"  x1="102.37" y1="27.86" x2="96.37" y2="33.86"  style="stroke: #b9db57;stroke-width:1.50"/>
<line clip-path="url(#plot-area)"  x1="167.19" y1="55.62" x2="173.19" y2="61.62"  style="stroke: #b9db57;stroke-width:1.50"/>
<line clip-path="url(#plot-area)"  x1="173.19" y1="55.62" x2="167.19" y2="61.62"  style="stroke: #b9db57;stroke-width:1.50"/>
<line clip-path="url(#plot-area)"  x1="227.80" y1="85.88" x2="233.80" y2="91.88"  style="stroke: #b9db57;stroke-width:1.50"/>
<line clip-path="url(#plot-area)"  x1="233.80" y1="85.88" x2="227.80" y2="91.88"  style="stroke: #b9db57;stroke-width:1.50"/>
<line clip-path="url(#plot-area)"  x1="282.24" y1="117.69" x2="288.24" y2="123.69"  style="stroke: #b9db57;stroke-width:1.50"/>
<line clip-path="url(#plot-area)"  x1="288.24" y1="117.69" x2="282.24" y2="123.69"  style="stroke: #b9db57;stroke-width:1.50"/>
<line clip-path="url(#plot-area)"  x1="332.51" y1="150.67" x2="338.51" y2="156.67"  style="stroke: #b9db57;stroke-width:1.50"/>
<line clip-path="url(#plot-area)"  x1="338.51" y1="150.67" x2="332.51" y2="156.67"  style="stroke: #b9db57;stroke-width:1.50"/>
<line clip-path="url(#plot-area)"  x1="379.78" y1="184.62" x2="385.78" y2="190.62"  style="stroke: #b9db57;stroke-width:1.50"/>
<line clip-path="url(#plot-area)"  x1="385.78" y1="184.62" x2="379.78" y2="190.62"  style="stroke: #b9db57;stroke-width:1.50"/>
<line clip-path="url(#plot-area)"  x1="424.77" y1="219.37" x2="430.77" y2="225.37"  style="stroke: #b9db57;stroke-width:1.50"/>
<line clip-path="url(#plot-area)"  x1="430.77" y1="219.37" x2="424.77" y2="225.37"  style="stroke: #b9db57;stroke-width:1.50"/>
<line clip-path="url(#plot-area)"  x1="467.99" y1="254.82" x2="473.99" y2="260.82"  style="stroke: #b9db57;stroke-width:1.50"/>
<line clip-path="url(#plot-area)"  x1="473.99" y1="254.82" x2="467.99" y2="260.82"  style="stroke: #b9db57;stroke-width:1.50"/>
<line clip-path="url(#plot-area)"  x1="509.79" y1="290.85" x2="515.79" y2="296.85"  style="stroke: #b9db57;stroke-width:1.50"/>
<line clip-path="url(#plot-area)"  x1="515.79" y1="290.85" x2="509.79" y2="296.85"  style="stroke: #b9db57;stroke-width:1.50"/>
<polyline clip-path="url(#plot-area)" style="fill:none; stroke:#69db57; stroke-width:2.00;"  points="107.76,35.08 185.68,59.26 252.46,86.23 312.34,115.05 367.47,145.30 419.13,176.74 468.12,209.17 515.01,242.46 560.19,276.47 " /><line clip-path="url(#plot-area)"  x1="103.26" y1="35.08" x2="112.26" y2="35.08"  style="stroke: #69db57;stroke-width:1.50"/>
<line clip-path="url(#plot-area)"  x1="107.76" y1="30.58" x2="107.76" y2="39.58"  style="stroke: #69db57;stroke-width:1.50"/>
<line clip-path="url(#plot-area)"  x1="181.18" y1="59.26" x2="190.18" y2="59.26"  style="stroke: #69db57;stroke-width:1.50"/>
<line clip-path="url(#plot-area)"  x1="185.68" y1="54.76" x2="185.68" y2="63.76"  style="stroke: #69db57;stroke-width:1.50"/>
<line clip-path="url(#plot-area)"  x1="247.96" y1="86.23" x2="256.96" y2="86.23"  style="stroke: #69db57;stroke-width:1.50"/>
<line clip-path="url(#plot-area)"  x1="252.46" y1="81.73" x2="252.46" y2="90.73"  style="stroke: #69db57;stroke-width:1.50"/>
<line clip-path="url(#plot-area)"  x1="307.84" y1="115.05" x2="316.84" y2="115.05"  style="stroke: #69db57;stroke-width:1.50"/>
<line clip-path="url(#plot-area)"  x1="312.34" y1="110.55" x2="312.34" y2="119.55"  style="stroke: #69db57;stroke-width:1.50"/>
<line clip-path="url(#plot-area)"  x1="362.97" y1="145.30" x2="371.97" y2="145.30"  style="stroke: #69db57;stroke-width:1.50"/>
<line clip-path="url(#plot-area)"  x1="367.47" y1="140.80" x2="367.47" y2="149.80"  style="stroke: #69db57;stroke-width:1.50"/>
<line clip-path="url(#plot-area)"  x1="414.63" y1="176.74" x2="423.63" y2="176.74"  style="stroke: #69db57;stroke-width:1.50"/>
<line clip-path="url(#plot-area)"  x1="419.13" y1="172.24" x2="419.13" y2="181.24"  style="stroke: #69db57;stroke-width:1.50"/>
<line clip-path="url(#plot-area)"  x1="463.62" y1="209.17" x2="472.62" y2="209.17"  style="stroke: #69db57;stroke-width:1.50"/>
<line clip-path="url(#plot-area)"  x1="468.12" y1="204.67" x2="468.12" y2="213.67"  style="stroke: #69db57;stroke-width:1.50"/>
<line clip-path="url(#plot-area)"  x1="510.51" y1="242.46" x2="519.51" y2="242.46"  style="stroke: #69db57;stroke-width:1.50"/>
<line clip-path="url(#plot-area)"  x1="515.01" y1="237.96" x2="515.01" y2="246.96"  style="stroke: #69db57;stroke-width:1.50"/>
<line clip-path="url(#plot-area)"  x1="555.69" y1="276.47" x2="564.69" y2="276.47"  style="stroke: #69db57;stroke-width:1.50"/>
<line clip-path="url(#plot-area)"  x1="560.19" y1="271.97" x2="560.19" y2="280.97"  style="stroke: #69db57;stroke-width:1.50"/>
<rect  x="70.00" y="25.00" width="495.00" height="325.00" style="fill:none; fill-opacity:1.00; stroke:black; stroke-width:0.50;" />
<text  x="317.50" y="387.00" text-anchor="middle"  font-weight="regular">Degrees of freedom</text>
<text  transform="rotate(270,5.00,187.50) translate(0, 10)"  x="5.00" y="187.50" text-anchor="middle"  font-weight="regular">L_2 Error</text>
<line  x1="103.78" y1="351.00" x2="103.78" y2="356.00"  style="stroke: black;stroke-width:1.00"/>
<text  x="103.78" y="370.00" text-anchor="middle"  font-weight="regular"><tspan>10<tspan  font-size="10" dy="-5" dx="1">1</tspan></tspan></text>
<line  x1="199.99" y1="351.00" x2="199.99" y2="356.00"  style="stroke: black;stroke-width:1.00"/>
<text  x="199.99" y="370.00" text-anchor="middle"  font-weight="regular"><tspan>10<tspan  font-size="10" dy="-5" dx="1">2</tspan></tspan></text>
<line  x1="296.21" y1="351.00" x2="296.21" y2="356.00"  style="stroke: black;stroke-width:1.00"/>
<text  x="296.21" y="370.00" text-anchor="middle"  font-weight="regular"><tspan>10<tspan  font-size="10" dy="-5" dx="1">3</tspan></tspan></text>
<line  x1="392.43" y1="351.00" x2="392.43" y2="356.00"  style="stroke: black;stroke-width:1.00"/>
<text  x="392.43" y="370.00" text-anchor="middle"  font-weight="regular"><tspan>10<tspan  font-size="10" dy="-5" dx="1">4</tspan></tspan></text>
<line  x1="488.65" y1="351.00" x2="488.65" y2="356.00"  style="stroke: black;stroke-width:1.00"/>
<text  x="488.65" y="370.00" text-anchor="middle"  font-weight="regular"><tspan>10<tspan  font-size="10" dy="-5" dx="1">5</tspan></tspan></text>
<line  x1="64.00" y1="311.37" x2="69.00" y2="311.37"  style="stroke: black;stroke-width:1.00"/>
<text  x="60.00" y="315.37" text-anchor="end"  font-weight="regular"><tspan>10<tspan  font-size="10" dy="-5" dx="1">-5</tspan></tspan></text>
<line  x1="64.00" y1="239.38" x2="69.00" y2="239.38"  style="stroke: black;stroke-width:1.00"/>
<text  x="60.00" y="243.38" text-anchor="end"  font-weight="regular"><tspan>10<tspan  font-size="10" dy="-5" dx="1">-4</tspan></tspan></text>
<line  x1="64.00" y1="167.39" x2="69.00" y2="167.39"  style="stroke: black;stroke-width:1.00"/>
<text  x="60.00" y="171.39" text-anchor="end"  font-weight="regular"><tspan>10<tspan  font-size="10" dy="-5" dx="1">-3</tspan></tspan></text>
<line  x1="64.00" y1="95.40" x2="69.00" y2="95.40"  style="stroke: black;stroke-width:1.00"/>
<text  x="60.00" y="99.40" text-anchor="end"  font-weight="regular"><tspan>10<tspan  font-size="10" dy="-5" dx="1">-2</tspan></tspan></text>
<rect  x="455.00" y="35.00" width="100.00" height="66.00" style="fill:white; fill-opacity:0.50; stroke:#333; stroke-width:0.50;" />
<defs><clipPath id="leg-area"><rect x="495.00" y="35.00" width="58.00" height="66.00"/>
</clipPath></defs><line  x1="465.00" y1="46.00" x2="495.00" y2="46.00"  style="stroke: #db5f57;stroke-width:2.00"/>
<text clip-path="url(#leg-area)"  x="525.00" y="50.00" text-anchor="middle"  font-weight="regular">d=2</text>
<rect clip-path="url(#plot-area)"  x="477.00" y="43.00" width="6.00" height="6.00" style="fill:#db5f57; fill-opacity:1.00; stroke:none; stroke-width:0.00;" />
<line  x1="465.00" y1="61.00" x2="495.00" y2="61.00"  style="stroke: #dbae57;stroke-width:2.00"/>
<text clip-path="url(#leg-area)"  x="525.00" y="65.00" text-anchor="middle"  font-weight="regular">d=3</text>
<circle clip-path="url(#plot-area)"  cx="480.00" cy="61.00" r="3.00" fill="#dbae57" /><line  x1="465.00" y1="76.00" x2="495.00" y2="76.00"  style="stroke: #b9db57;stroke-width:2.00"/>
<text clip-path="url(#leg-area)"  x="525.00" y="80.00" text-anchor="middle"  font-weight="regular">d=4</text>
<line clip-path="url(#plot-area)"  x1="477.00" y1="73.00" x2="483.00" y2="79.00"  style="stroke: #b9db57;stroke-width:1.50"/>
<line clip-path="url(#plot-area)"  x1="483.00" y1="73.00" x2="477.00" y2="79.00"  style="stroke: #b9db57;stroke-width:1.50"/>
<line  x1="465.00" y1="91.00" x2="495.00" y2="91.00"  style="stroke: #69db57;stroke-width:2.00"/>
<text clip-path="url(#leg-area)"  x="525.00" y="95.00" text-anchor="middle"  font-weight="regular">d=5</text>
<line clip-path="url(#plot-area)"  x1="475.50" y1="91.00" x2="484.50" y2="91.00"  style="stroke: #69db57;stroke-width:1.50"/>
<line clip-path="url(#plot-area)"  x1="480.00" y1="86.50" x2="480.00" y2="95.50"  style="stroke: #69db57;stroke-width:1.50"/>
</svg>

