<svg xmlns="http://www.w3.org/2000/svg" version="1.1" width="600" height="400">
<defs><clipPath id="plot-area"><rect x="70.00" y="25.00" width="495.00" height="325.00"/>
</clipPath></defs><line clip-path="url(#plot-area)"  x1="104.17" y1="25.00" x2="104.17" y2="350.00"  style="stroke: #ccc;stroke-width:0.50"/>
<line clip-path="url(#plot-area)"  x1="200.30" y1="25.00" x2="200.30" y2="350.00"  style="stroke: #ccc;stroke-width:0.50"/>
<line clip-path="url(#plot-area)"  x1="296.44" y1="25.00" x2="296.44" y2="350.00"  style="stroke: #ccc;stroke-width:0.50"/>
<line clip-path="url(#plot-area)"  x1="392.58" y1="25.00" x2="392.58" y2="350.00"  style="stroke: #ccc;stroke-width:0.50"/>
<line clip-path="url(#plot-area)"  x1="488.72" y1="25.00" x2="488.72" y2="350.00"  style="stroke: #ccc;stroke-width:0.50"/>
<line clip-path="url(#plot-area)"  x1="70.00" y1="311.37" x2="565.00" y2="311.37"  style="stroke: #ccc;stroke-width:0.50"/>
<line clip-path="url(#plot-area)"  x1="70.00" y1="239.38" x2="565.00" y2="239.38"  style="stroke: #ccc;stroke-width:0.50"/>
<line clip-path="url(#plot-area)"  x1="70.00" y1="167.39" x2="565.00" y2="167.39"  style="stroke: #ccc;stroke-width:0.50"/>
<line clip-path="url(#plot-area)"  x1="70.00" y1="95.40" x2="565.00" y2="95.40"  style="stroke: #ccc;stroke-width:0.50"/>
<polyline clip-path="url(#plot-area)" style="fill:none; stroke:#db5f57; stroke-width:2.00;"  points="75.23,29.20 126.32,66.17 170.52,104.79 210.94,144.17 249.00,184.03 285.47,224.24 320.82,264.75 355.32,305.49 389.17,346.40 " /><rect clip-path="url(#plot-area)"  x="72.23" y="26.20" width="6.00" height="6.00" style="fill:#db5f57; fill-opacity:1.00; stroke:none; stroke-width:0.00;" />
<rect clip-path="url(#plot-area)"  x="123.32" y="63.17" width="6.00" height="6.00" style="fill:#db5f57; fill-opacity:1.00; stroke:none; stroke-width:0.00;" />
<rect clip-path="url(#plot-area)"  x="167.52" y="101.79" width="6.00" height="6.00" style="fill:#db5f57; fill-opacity:1.00; stroke:none; stroke-width:0.00;" />
<rect clip-path="url(#plot-area)"  x="207.94" y="141.17" width="6.00" height="6.00" style="fill:#db5f57; fill-opacity:1.00; stroke:none; stroke-width:0.00;" />
<rect clip-path="url(#plot-area)"  x="246.00" y="181.03" width="6.00" height="6.00" style="fill:#db5f57; fill-opacity:1.00; stroke:none; stroke-width:0.00;" />
<rect clip-path="url(#plot-area)"  x="282.47" y="221.24" width="6.00" height="6.00" style="fill:#db5f57; fill-opacity:1.00; stroke:none; stroke-width:0.00;" />
<rect clip-path="url(#plot-area)"  x="317.82" y="261.75" width="6.00" height="6.00" style="fill:#db5f57; fill-opacity:1.00; stroke:none; stroke-width:0.00;" />
<rect clip-path="url(#plot-area)"  x="352.32" y="302.49" width="6.00" height="6.00" style="fill:#db5f57; fill-opacity:1.00; stroke:none; stroke-width:0.00;" />
<rect clip-path="url(#plot-area)"  x="386.17" y="343.40" width="6.00" height="6.00" style="fill:#db5f57; fill-opacity:1.00; stroke:none; stroke-width:0.00;" />
<polyline clip-path="url(#plot-area)" style="fill:none; stroke:#dbae57; stroke-width:2.00;"  points="89.27,28.60 151.40,60.60 204.66,94.72 252.73,130.04 297.39,166.20 339.65,203.05 380.14,240.47 419.25,278.37 457.28,316.68 " /><circle clip-path="url(#plot-area)"  cx="89.27" cy="28.60" r="3.00" fill="#dbae57" /><circle clip-path="url(#plot-area)"  cx="151.40" cy="60.60" r="3.00" fill="#dbae57" /><circle clip-path="url(#plot-area)"  cx="204.66" cy="94.72" r="3.00" fill="#dbae57" /><circle clip-path="url(#plot-area)"  cx="252.73" cy="130.04" r="3.00" fill="#dbae57" /><circle clip-path="url(#plot-area)"  cx="297.39" cy="166.20" r="3.00" fill="#dbae57" /><circle clip-path="url(#plot-area)"  cx="339.65" cy="203.05" r="3.00" fill="#dbae57" /><circle clip-path="url(#plot-area)"  cx="380.14" cy="240.47" r="3.00" fill="#dbae57" /><circle clip-path="url(#plot-area)"  cx="419.25" cy="278.37" r="3.00" fill="#dbae57" /><circle clip-path="url(#plot-area)"  cx="457.28" cy="316.68" r="3.00" fill="#dbae57" /><polyline clip-path="url(#plot-area)" style="fill:none; stroke:#b9db57; stroke-width:2.00;"  points="99.77,30.86 170.52,58.62 231.08,88.88 285.47,120.69 335.70,153.67 382.93,187.62 427.89,222.37 471.07,257.82 512.83,293.85 " /><line clip-path="url(#plot-area)"  x1="96.77" y1="27.86" x2="102.77" y2="33.86"  style="stroke: #b9db57;stroke-width:1.50"/>
<line clip-path="url(#plot-area)"  x1="102.77" y1="27.86" x2="96.77" y2="33.86"  style="stroke: #b9db57;stroke-width:1.50"/>
<line clip-path="url(#plot-area)"  x1="167.52" y1="55.62" x2="173.52" y2="61.62"  style="stroke: #b9db57;stroke-width:1.50"/>
<line clip-path="url(#plot-area)"  x1="173.52" y1="55.62" x2="167.52" y2="61.62"  style="stroke: #b9db57;stroke-width:1.50"/>
<line clip-path="url(#plot-area)"  x1="228.08" y1="85.88" x2="234.08" y2="91.88"  style="stroke: #b9db57;stroke-width:1.50"/>
<line clip-path="url(#plot-area)"  x1="234.08" y1="85.88" x2="228.08" y2="91.88"  style="stroke: #b9db57;stroke-width:1.50"/>
<line clip-path="url(#plot-area)"  x1="282.47" y1="117.69" x2="288.47" y2="123.69"  style="stroke: #b9db57;stroke-width:1.50"/>
<line clip-path="url(#plot-area)"  x1="288.47" y1="117.69" x2="282.47" y2="123.69"  style="stroke: #b9db57;stroke-width:1.50"/>
<line clip-path="url(#plot-area)"  x1="332.70" y1="150.67" x2="338.70" y2="156.67"  style="stroke: #b9db57;stroke-width:1.50"/>
<line clip-path="url(#plot-area)"  x1="338.70" y1="150.67" x2="332.70" y2="156.67"  style="stroke: #b9db57;stroke-width:1.50"/>
<line clip-path="url(#plot-area)"  x1="379.93" y1="184.62" x2="385.93" y2="190.62"  style="stroke: #b9db57;stroke-width:1.50"/>
<line clip-path="url(#plot-area)"  x1="385.93" y1="184.62" x2="379.93" y2="190.62"  style="stroke: #b9db57;stroke-width:1.50"/>
<line clip-path="url(#plot-area)"  x1="424.89" y1="219.37" x2="430.89" y2="225.37"  style="stroke: #b9db57;stroke-width:1.50"/>
<line clip-path="url(#plot-area)"  x1="430.89" y1="219.37" x2="424.89" y2="225.37"  style="stroke: #b9db57;stroke-width:1.50"/>
<line clip-path="url(#plot-area)"  x1="468.07" y1="254.82" x2="474.07" y2="260.82"  style="stroke: #b9db57;stroke-width:1.50"/>
<line clip-path="url(#plot-area)"  x1="474.07" y1="254.82" x2="468.07" y2="260.82"  style="stroke: #b9db57;stroke-width:1.50"/>
<line clip-path="url(#plot-area)"  x1="509.83" y1="290.85" x2="515.83" y2="296.85"  style="stroke: #b9db57;stroke-width:1.50"/>
<line clip-path="url(#plot-area)"  x1="515.83" y1="290.85" x2="509.83" y2="296.85"  style="stroke: #b9db57;stroke-width:1.50"/>
<polyline clip-path="url(#plot-area)" style="fill:none; stroke:#69db57; stroke-width:2.00;"  points="108.15,35.08 186.00,59.26 252.73,86.23 312.55,115.05 367.64,145.30 419.25,176.74 468.20,209.17 515.05,242.46 560.19,276.47 " /><line clip-path="url(#plot-area)"  x1="103.65" y1="35.08" x2="112.65" y2="35.08"  style="stroke: #69db57;stroke-width:1.50"/>
<line clip-path="url(#plot-area)"  x1="108.15" y1="30.58" x2="108.15" y2="39.58"  style="stroke: #69db57;stroke-width:1.50"/>
<line clip-path="url(#plot-area)"  x1="181.50" y1="59.26" x2="190.50" y2="59.26"  style="stroke: #69db57;stroke-width:1.50"/>
<line clip-path="url(#plot-area)"  x1="186.00" y1="54.76" x2="186.00" y2="63.76"  style="stroke: #69db57;stroke-width:1.50"/>
<line clip-path="url(#plot-area)"  x1="248.23" y1="86.23" x2="257.23" y2="86.23"  style="stroke: #69db57;stroke-width:1.50"/>
<line clip-path="url(#plot-area)"  x1="252.73" y1="81.73" x2="252.73" y2="90.73"  style="stroke: #69db57;stroke-width:1.50"/>
<line clip-path="url(#plot-area)"  x1="308.05" y1="115.05" x2="317.05" y2="115.05"  style="stroke: #69db57;stroke-width:1.50"/>
<line clip-path="url(#plot-area)"  x1="312.55" y1="110.55" x2="312.55" y2="119.55"  style="stroke: #69db57;stroke-width:1.50"/>
<line clip-path="url(#plot-area)"  x1="363.14" y1="145.30" x2="372.14" y2="145.30"  style="stroke: #69db57;stroke-width:1.50"/>
<line clip-path="url(#plot-area)"  x1="367.64" y1="140.80" x2="367.64" y2="149.80"  style="stroke: #69db57;stroke-width:1.50"/>
<line clip-path="url(#plot-area)"  x1="414.75" y1="176.74" x2="423.75" y2="176.74"  style="stroke: #69db57;stroke-width:1.50"/>
<line clip-path="url(#plot-area)"  x1="419.25" y1="172.24" x2="419.25" y2="181.24"  style="stroke: #69db57;stroke-width:1.50"/>
<line clip-path="url(#plot-area)"  x1="463.70" y1="209.17" x2="472.70" y2="209.17"  style="stroke: #69db57;stroke-width:1.50"/>
<line clip-path="url(#plot-area)"  x1="468.20" y1="204.67" x2="468.20" y2="213.67"  style="stroke: #69db57;stroke-width:1.50"/>
<line clip-path="url(#plot-area)"  x1="510.55" y1="242.46" x2="519.55" y2="242.46"  style="stroke: #69db57;stroke-width:1.50"/>
<line clip-path="url(#plot-area)"  x1="515.05" y1="237.96" x2="515.05" y2="246.96"  style="stroke: #69db57;stroke-width:1.50"/>
<line clip-path="url(#plot-area)"  x1="555.69" y1="276.47" x2="564.69" y2="276.47"  style="stroke: #69db57;stroke-width:1.50"/>
<line clip-path="url(#plot-area)"  x1="560.19" y1="271.97" x2="560.19" y2="280.97"  style="stroke: #69db57;stroke-width:1.50"/>
<rect  x="70.00" y="25.00" width="495.00" height="325.00" style="fill:none; fill-opacity:1.00; stroke:black; stroke-width:0.50;" />
<text  x="317.50" y="387.00" text-anchor="middle"  font-weight="regular">Degrees of freedom</text>
<text  transform="rotate(270,5.00,187.50) translate(0, 10)"  x="5.00" y="187.50" text-anchor="middle"  font-weight="regular">L_2 Error</text>
<line  x1="104.17" y1="351.00" x2="104.17" y2="356.00"  style="stroke: black;stroke-width:1.00"/>
<text  x="104.17" y="370.00" text-anchor="middle"  font-weight="regular"><tspan>10<tspan  font-size="10" dy="-5" dx="1">1</tspan></tspan></text>
<line  x1="200.30" y1="351.00" x2="200.30" y2="356.00"  style="stroke: black;stroke-width:1.00"/>
<text  x="200.30" y="370.00" text-anchor="middle"  font-weight="regular"><tspan>10<tspan  font-size="10" dy="-5" dx="1">2</tspan></tspan></text>
<line  x1="296.44" y1="351.00" x2="296.44" y2="356.00"  style="stroke: black;stroke-width:1.00"/>
<text  x="296.44" y="370.00" text-anchor="middle"  font-weight="regular"><tspan>10<tspan  font-size="10" dy="-5" dx="1">3</tspan></tspan></text>
<line  x1="392.58" y1="351.00" x2="392.58" y2="356.00"  style="stroke: black;stroke-width:1.00"/>
<text  x="392.58" y="370.00" text-anchor="middle"  font-weight="regular"><tspan>10<tspan  font-size="10" dy="-5" dx="1">4</tspan></tspan></text>
<line  x1="488.72" y1="351.00" x2="488.72" y2="356.00"  style="stroke: black;stroke-width:1.00"/>
<text  x="488.72" y="370.00" text-anchor="middle"  font-weight="regular"><tspan>10<tspan  font-size="10" dy="-5" dx="1">5</tspan></tspan></text>
<line  x1="64.00" y1="311.37" x2="69.00" y2="311.37"  style="stroke: black;stroke-width:1.00"/>
<text  x="60.00" y="315.37" text-anchor="end"  font-weight="regular"><tspan>10<tspan  font-size="10" dy="-5" dx="1">-5</tspan></tspan></text>
<line  x1="64.00" y1="239.38" x2="69.00" y2="239.38"  style="stroke: black;stroke-width:1.00"/>
<text  x="60.00" y="243.38" text-anchor="end"  font-weight="regular"><tspan>10<tspan  font-size="10" dy="-5" dx="1">-4</tspan></tspan></text>
<line  x1="64.00" y1="167.39" x2="69.00" y2="167.39"  style="stroke: black;stroke-width:1.00"/>
<text  x="60.00" y="171.39" text-anchor="end"  font-weight="regular"><tspan>10<tspan  font-size="10" dy="-5" dx="1">-3</tspan></tspan></text>
<line  x1="64.00" y1="95.40" x2="69.00" y2="95.40"  style="stroke: black;stroke-width:1.00"/>
<text  x="60.00" y="99.40" text-anchor="end"  font-weight="regular"><tspan>10<tspan  font-size="10" dy="-5" dx="1">-2</tspan></tspan></text>
<rect  x="455.00" y="35.00" width="100.00" height="66.00" style="fill:white; fill-opacity:0.50; stroke:#333; stroke-width:0.50;" />
<defs><clipPath id="leg-area"><rect x="495.00" y="35.00" width="58.00" height="66.00"/>
</clipPath></defs><line  x1="465.00" y1="46.00" x2="495.00" y2="46.00"  style="stroke: #db5f57;stroke-width:2.00"/>
<text clip-path="url(#leg-area)"  x="525.00" y="50.00" text-anchor="middle"  font-weight="regular">d=2</text>
<rect clip-path="url(#plot-area)"  x="477.00" y="43.00" width="6.00" height="6.00" style="fill:#db5f57; fill-opacity:1.00; stroke:none; stroke-width:0.00;" />
<line  x1="465.00" y1="61.00" x2="495.00" y2="61.00"  style="stroke: #dbae57;stroke-width:2.00"/>
<text clip-path="url(#leg-area)"  x="525.00" y="65.00" text-anchor="middle"  font-weight="regular">d=3</text>
<circle clip-path="url(#plot-area)"  cx="480.00" cy="61.00" r="3.00" fill="#dbae57" /><line  x1="465.00" y1="76.00" x2="495.00" y2="76.00"  style="stroke: #b9db57;stroke-width:2.00"/>
<text clip-path="url(#leg-area)"  x="525.00" y="80.00" text-anchor="middle"  font-weight="regular">d=4</text>
<line clip-path="url(#plot-area)"  x1="477.00" y1="73.00" x2="483.00" y2="79.00"  style="stroke: #b9db57;stroke-width:1.50"/>
<line clip-path="url(#plot-area)"  x1="483.00" y1="73.00" x2="477.00" y2="79.00"  style="stroke: #b9db57;stroke-width:1.50"/>
<line  x1="465.00" y1="91.00" x2="495.00" y2="91.00"  style="stroke: #69db57;stroke-width:2.00"/>
<text clip-path="url(#leg-area)"  x="525.00" y="95.00" text-anchor="middle"  font-weight="regular">d=5</text>
<line clip-path="url(#plot-area)"  x1="475.50" y1="91.00" x2="484.50" y2="91.00"  style="stroke: #69db57;stroke-width:1.50"/>
<line clip-path="url(#plot-area)"  x1="480.00" y1="86.50" x2="480.00" y2="95.50"  style="stroke: #69db57;stroke-width:1.50"/>
</svg>

